HIERARCHY
ROOT Hips
{
	OFFSET 0.000000 0.000000 0.000000
	CHANNELS 6 Xposition Yposition Zposition Xrotation Yrotation Zrotation
	JOINT LeftUpLeg_virtual
	{
		OFFSET 0.000000 0.000000 0.000000
		CHANNELS 3 Xrotation Yrotation Zrotation
		JOINT LeftUpLeg
		{
			OFFSET 15.427100 -6.655098 0.678600
			CHANNELS 3 Xrotation Yrotation Zrotation
			JOINT LeftLeg
			{
				OFFSET 4.081073 -39.591068 13.024000
				CHANNELS 3 Xrotation Yrotation Zrotation
				JOINT LeftFoot
				{
					OFFSET -4.081074 -37.707932 -15.979700
					CHANNELS 3 Xrotation Yrotation Zrotation
					JOINT LeftToeBase
					{
						OFFSET 5.346399 -15.068900 20.645000
						CHANNELS 3 Xrotation Yrotation Zrotation
						JOINT LeftToe_End
						{
							OFFSET 2.754700 0.931300 11.300900
							CHANNELS 3 Xrotation Yrotation Zrotation
							End Site
							{
								OFFSET 0 0 0
							}
						}
					}
				}
			}
		}
	}
	JOINT RightUpLeg_virtual
	{
		OFFSET 0.000000 0.000000 0.000000
		CHANNELS 3 Xrotation Yrotation Zrotation
		JOINT RightUpLeg
		{
			OFFSET -15.569500 -6.655098 0.678600
			CHANNELS 3 Xrotation Yrotation Zrotation
			JOINT RightLeg
			{
				OFFSET -4.081825 -39.591045 13.023800
				CHANNELS 3 Xrotation Yrotation Zrotation
				JOINT RightFoot
				{
					OFFSET 4.081824 -37.707954 -15.979600
					CHANNELS 3 Xrotation Yrotation Zrotation
					JOINT RightToeBase
					{
						OFFSET -5.346400 -15.068900 20.645000
						CHANNELS 3 Xrotation Yrotation Zrotation
						JOINT RightToe_End
						{
							OFFSET -2.754700 0.931300 11.300900
							CHANNELS 3 Xrotation Yrotation Zrotation
							End Site
							{
								OFFSET 0 0 0
							}
						}
					}
				}
			}
		}
	}
	JOINT Spine_virtual
	{
		OFFSET 0.000000 0.000000 0.000000
		CHANNELS 3 Xrotation Yrotation Zrotation
		JOINT Spine
		{
			OFFSET -0.279200 12.230698 -2.892100
			CHANNELS 3 Xrotation Yrotation Zrotation
			JOINT Spine1
			{
				OFFSET -0.232667 10.192268 -1.242267
				CHANNELS 3 Xrotation Yrotation Zrotation
				JOINT Spine1_split
				{
					OFFSET -0.232667 10.192268 -1.242267
					CHANNELS 3 Xrotation Yrotation Zrotation
					JOINT Spine2
					{
						OFFSET -0.232667 10.192268 -1.242267
						CHANNELS 3 Xrotation Yrotation Zrotation
						JOINT Neck_virtual
						{
							OFFSET 0.000000 0.000000 0.000000
							CHANNELS 3 Xrotation Yrotation Zrotation
							JOINT Neck
							{
								OFFSET -0.418800 17.814194 8.416900
								CHANNELS 3 Xrotation Yrotation Zrotation
								JOINT Head
								{
									OFFSET 0.000000 7.031097 3.806800
									CHANNELS 3 Xrotation Yrotation Zrotation
									JOINT HeadTop_End
									{
										OFFSET 0.000000 24.646606 12.978600
										CHANNELS 3 Xrotation Yrotation Zrotation
										End Site
										{
											OFFSET 0 0 0
										}
									}
								}
							}
						}
						JOINT LeftShoulder_virtual
						{
							OFFSET 0.000000 0.000000 0.000000
							CHANNELS 3 Xrotation Yrotation Zrotation
							JOINT LeftShoulder
							{
								OFFSET 8.476499 7.247704 -3.868750
								CHANNELS 3 Xrotation Yrotation Zrotation
								JOINT LeftShoulder_split
								{
									OFFSET 8.476499 7.247704 -3.868750
									CHANNELS 3 Xrotation Yrotation Zrotation
									JOINT LeftArm
									{
										OFFSET 9.308998 -2.777710 0.208600
										CHANNELS 3 Xrotation Yrotation Zrotation
										JOINT LeftForeArm
										{
											OFFSET 29.972298 0.000000 0.000000
											CHANNELS 3 Xrotation Yrotation Zrotation
											JOINT LeftHand
											{
												OFFSET 26.026505 0.000000 0.000000
												CHANNELS 3 Xrotation Yrotation Zrotation
												End Site
												{
													OFFSET 0 0 0
												}
											}
										}
									}
								}
							}
						}
						JOINT RightShoulder_virtual
						{
							OFFSET 0.000000 0.000000 0.000000
							CHANNELS 3 Xrotation Yrotation Zrotation
							JOINT RightShoulder
							{
								OFFSET -7.570500 7.247704 -3.868750
								CHANNELS 3 Xrotation Yrotation Zrotation
								JOINT RightShoulder_split
								{
									OFFSET -7.570500 7.247704 -3.868750
									CHANNELS 3 Xrotation Yrotation Zrotation
									JOINT RightArm
									{
										OFFSET -9.308998 -2.777710 0.208500
										CHANNELS 3 Xrotation Yrotation Zrotation
										JOINT RightForeArm
										{
											OFFSET -29.972300 0.000000 0.000000
											CHANNELS 3 Xrotation Yrotation Zrotation
											JOINT RightHand
											{
												OFFSET -26.026505 0.000000 0.000000
												CHANNELS 3 Xrotation Yrotation Zrotation
												End Site
												{
													OFFSET 0 0 0
												}
											}
										}
									}
								}
							}
						}
					}
				}
			}
		}
	}
}
MOTION
Frames: 8
Frame Time: 0.03333333
-0.840727 75.897446 -0.157406 0.000000 0.000000 0.000000 -19.856453 1.241055 -0.422983 -11.889741 0.068297 16.465491 52.422815 0.885910 -0.917034 -28.786519 1.565614 -13.853170 -0.935340 -0.840505 -0.621136 0.000000 0.000000 0.000000 -19.382856 1.454897 -0.352400 -7.196570 -8.727728 -20.481946 50.254459 4.575765 1.895588 -30.886665 -3.545193 13.172235 4.195521 0.393771 -0.169711 0.000000 0.000000 0.000000 -20.008575 3.294685 -0.748033 19.137826 -1.385830 3.297352 9.491896 -0.268232 1.393016 1.506936 4.301914 -1.235705 0.000000 0.000000 0.000000 8.211484 -0.707424 1.285034 -15.834387 0.827703 -1.979024 -18.471871 -2.199935 1.437593 0.000000 0.000000 0.000000 10.352788 -1.101072 1.474349 1.665125 -7.595855 -6.362644 -8.502406 -1.013857 -5.975641 -7.037750 -17.345339 -53.543099 64.355231 -58.385850 56.703916 0.000000 0.000000 0.000000 8.888094 -0.585484 1.151121 10.556173 -0.630611 14.024012 -1.892695 1.575348 -1.990622 -24.307957 10.941778 63.211024 83.177135 66.700670 -79.414712 0.000000 0.000000 0.000000 
-0.754133 75.806984 -0.148079 0.000000 0.000000 0.000000 -19.714124 1.884938 -0.321879 -11.993026 0.073936 16.262322 52.509729 0.947985 -0.672008 -28.659272 1.634168 -14.030215 -1.274317 -0.842263 -0.575567 0.000000 0.000000 0.000000 -19.219681 2.127615 -0.315962 -7.132064 -8.407694 -20.607126 50.018971 4.714973 1.793766 -30.910468 -3.697227 13.191535 3.759472 0.446856 -0.203009 0.000000 0.000000 0.000000 -19.662627 3.298672 -0.681029 18.996313 -1.382921 3.215111 9.433737 -0.403192 1.242603 1.521183 3.421367 -1.358180 0.000000 0.000000 0.000000 8.225894 -0.696058 1.147180 -15.047369 0.858293 -2.411729 -18.758744 -1.646951 1.221637 0.000000 0.000000 0.000000 10.207165 -1.139671 1.532780 1.550533 -7.977185 -6.450349 -7.429450 -0.218422 -5.321974 -8.841605 -15.875719 -53.401516 61.963736 -58.674624 54.031950 0.000000 0.000000 0.000000 9.071243 -0.660212 1.161463 10.749633 -0.769430 15.008157 -3.340059 1.346497 -1.093305 -24.157976 8.995635 59.999681 81.057926 66.412511 -76.078957 0.000000 0.000000 0.000000 
-0.635795 75.734253 -0.121830 0.000000 0.000000 0.000000 -19.136196 3.281114 -0.233653 -12.423786 -0.628446 15.969536 52.846365 1.010629 -0.334942 -28.521038 1.395202 -13.801612 -1.637887 -0.842654 -0.478827 0.000000 0.000000 0.000000 -18.621165 3.898018 -0.199362 -6.868843 -8.732168 -20.637113 49.656250 4.639930 1.774528 -30.951392 -4.146674 12.953757 3.544556 0.436949 -0.033358 0.000000 0.000000 0.000000 -19.065259 4.198403 -0.476208 18.780416 -1.422684 3.080463 9.125139 -0.639815 1.069167 1.170871 2.429965 -0.539059 0.000000 0.000000 0.000000 8.051658 -0.825796 1.068912 -13.562791 0.699055 -2.847082 -18.685275 -1.087217 0.427401 0.000000 0.000000 0.000000 9.786760 -1.235011 1.610276 1.335258 -9.158471 -6.735558 -6.660743 0.261010 -4.593313 -10.246789 -14.537803 -51.755687 58.013708 -57.281457 48.247456 0.000000 0.000000 0.000000 9.131678 -0.938643 1.129094 10.846339 -1.252441 16.688015 -4.161933 2.070958 -0.099773 -23.343519 6.044933 53.088673 86.061838 68.587872 -79.352837 0.000000 0.000000 0.000000 
-0.489827 75.739937 -0.103241 0.000000 0.000000 0.000000 -18.135380 5.270792 -0.196939 -13.167201 -2.060635 15.601938 53.083417 1.034329 0.009302 -28.502584 0.916189 -13.295309 -1.593323 -0.826320 -0.418103 0.000000 0.000000 0.000000 -17.709210 6.444177 -0.079990 -6.540815 -9.656968 -20.611991 49.205308 4.401404 1.868058 -31.070541 -4.871206 12.543774 3.731871 0.387295 0.209200 0.000000 0.000000 0.000000 -18.156224 5.874358 -0.257696 18.516931 -1.550487 2.942934 8.581912 -1.012287 0.930530 0.741275 1.456515 0.708672 0.000000 0.000000 0.000000 7.663518 -1.099082 1.089867 -11.832236 0.310711 -2.850221 -18.328572 -0.486027 -0.799024 0.000000 0.000000 0.000000 9.201373 -1.441229 1.710694 1.081327 -10.752587 -7.306536 -5.546020 0.017523 -4.021980 -10.744579 -13.782665 -48.815492 53.983715 -54.609210 40.945966 0.000000 0.000000 0.000000 8.868437 -1.400045 1.082209 10.810268 -2.095178 18.412399 -4.412009 3.060898 0.592593 -23.430952 2.416845 44.533110 97.652984 72.214347 -89.325330 0.000000 0.000000 0.000000 
-0.326136 75.894516 -0.101654 0.000000 0.000000 0.000000 -16.750776 7.762058 -0.216727 -14.147161 -4.088366 15.078218 52.964056 0.941233 0.276177 -28.460054 0.269413 -12.868337 -1.123083 -0.781274 -0.423060 0.000000 0.000000 0.000000 -16.549366 9.337391 -0.005639 -6.186580 -11.110305 -20.583096 48.634468 4.051867 2.109909 -31.285664 -5.772308 12.059178 4.284003 0.340438 0.381103 0.000000 0.000000 0.000000 -16.956846 8.179934 -0.105810 18.242382 -1.780787 2.832137 7.881462 -1.523696 0.880734 0.472608 0.940113 1.121848 0.000000 0.000000 0.000000 7.137636 -1.540162 1.259737 -10.218130 -0.400499 -2.060843 -17.866621 -0.034712 -2.140862 0.000000 0.000000 0.000000 8.482040 -1.795000 1.829026 0.861100 -12.425908 -8.099472 -4.361226 -0.444951 -3.738073 -10.246354 -13.558458 -44.971656 51.293860 -51.926322 33.953130 0.000000 0.000000 0.000000 8.203197 -2.025727 1.058623 10.570332 -3.398233 19.300194 -3.128857 3.723947 0.546997 -26.725982 -1.046902 36.371915 118.813463 75.344459 -109.418305 0.000000 0.000000 0.000000 
-0.096109 76.319412 -0.075420 0.000000 0.000000 0.000000 -15.106345 10.563266 -0.246344 -15.190132 -6.375523 14.317330 52.388149 0.694795 0.372981 -28.093202 -0.431671 -12.795608 -0.594088 -0.712992 -0.435169 0.000000 0.000000 0.000000 -15.208267 12.187416 0.027694 -5.803598 -12.986672 -20.633829 47.784222 3.658539 2.474236 -31.500747 -6.716357 11.572810 4.962183 0.328241 0.392777 0.000000 0.000000 0.000000 -15.587885 10.773514 -0.006588 17.974859 -2.121914 2.785269 7.074846 -2.144015 0.943994 0.225354 0.814757 0.635235 0.000000 0.000000 0.000000 6.605000 -2.132395 1.541887 -8.969994 -1.596874 -0.340594 -17.355985 -0.099893 -3.305868 0.000000 0.000000 0.000000 7.679667 -2.241095 1.942731 0.733715 -13.840774 -9.056669 -3.226386 -0.906741 -3.768530 -9.392811 -13.586249 -40.540868 49.901048 -50.380165 27.830968 0.000000 0.000000 0.000000 7.275337 -2.710360 1.085694 10.098171 -4.979358 18.437005 -1.078461 4.231657 0.193415 -34.288670 -2.702786 30.661959 145.229493 75.624770 -135.360320 0.000000 0.000000 0.000000 
0.207607 77.006310 0.132500 0.000000 0.000000 0.000000 -13.390638 13.400119 -0.190078 -16.119069 -8.488923 13.273879 51.342754 0.529932 0.204103 -27.302119 -1.035440 -12.801187 -0.308738 -0.634024 -0.426378 0.000000 0.000000 0.000000 -13.740218 14.799966 0.125394 -5.491735 -15.192279 -20.927713 46.408291 3.317444 2.927303 -31.517925 -7.491562 11.162423 5.609560 0.357158 0.258824 0.000000 0.000000 0.000000 -14.149351 13.325793 0.059311 17.741843 -2.445585 2.778724 6.308207 -2.698725 1.114729 0.465054 0.862016 -0.146248 0.000000 0.000000 0.000000 6.159836 -2.671625 1.858720 -8.297543 -3.187294 2.084867 -17.027889 -0.772336 -4.056330 0.000000 0.000000 0.000000 6.872531 -2.667933 2.066990 0.686686 -14.975045 -10.058812 -2.329884 -1.516427 -4.102627 -8.861697 -13.348469 -36.230475 48.657195 -49.968578 22.162806 0.000000 0.000000 0.000000 6.193978 -3.329066 1.174297 9.349877 -6.557675 15.720165 0.574023 4.447152 0.259597 -46.396939 -1.763388 27.962595 162.229683 73.882552 -152.305610 0.000000 0.000000 0.000000 
0.541755 77.962067 0.351997 0.000000 0.000000 0.000000 -11.753080 15.847205 0.109472 -16.689267 -10.099948 11.925052 49.763034 0.715660 -0.201535 -26.137601 -1.397058 -12.563923 -0.275281 -0.553177 -0.426262 0.000000 0.000000 0.000000 -12.130879 16.922294 0.428393 -5.414805 -17.562860 -21.622390 44.346919 3.074007 3.424308 -31.017918 -7.906440 10.916515 5.973171 0.414242 0.058613 0.000000 0.000000 0.000000 -12.881520 15.735381 0.277400 17.562742 -2.601665 2.762065 5.659740 -2.965334 1.284544 0.783498 0.750631 -0.771070 0.000000 0.000000 0.000000 5.847302 -2.963854 2.092317 -8.356637 -5.117645 4.628372 -17.178047 -2.318628 -4.405641 0.000000 0.000000 0.000000 6.055765 -2.850845 2.146331 0.674106 -15.954142 -11.170301 -1.552817 -2.256060 -4.512437 -9.120482 -12.913467 -32.850795 46.706821 -49.940059 16.488620 0.000000 0.000000 0.000000 5.183811 -3.674162 1.251938 8.267482 -7.660721 11.304326 0.973644 5.302724 0.707962 -60.999286 1.416103 28.235165 166.758700 73.934817 -156.959810 0.000000 0.000000 0.000000 
